<?xml version="1.0" encoding="UTF-8" standalone="no"?>
<svg
   width="3948.48"
   height="3948.48"
   version="1.1"
   id="svg7"
   sodipodi:docname="logo-min-edited.svg"
   inkscape:version="1.3 (0e150ed6c4, 2023-07-21)"
   xmlns:inkscape="http://www.inkscape.org/namespaces/inkscape"
   xmlns:sodipodi="http://sodipodi.sourceforge.net/DTD/sodipodi-0.dtd"
   xmlns="http://www.w3.org/2000/svg"
   xmlns:svg="http://www.w3.org/2000/svg">
  <defs
     id="defs7">
    <clipPath
       clipPathUnits="userSpaceOnUse"
       id="clipPath8">
      <rect
         style="opacity:0.27;fill:#000000;stroke-width:6.30549"
         id="rect9"
         width="3297.7576"
         height="3300.5012"
         x="328.35455"
         y="326.85242" />
    </clipPath>
    <clipPath
       clipPathUnits="userSpaceOnUse"
       id="clipPath9">
      <rect
         style="opacity:0.27;fill:#000000;stroke-width:6.30549"
         id="rect10"
         width="3297.7576"
         height="3300.5012"
         x="328.35455"
         y="326.85242" />
    </clipPath>
    <clipPath
       clipPathUnits="userSpaceOnUse"
       id="clipPath10">
      <rect
         style="opacity:0.27;fill:#000000;stroke-width:6.30549"
         id="rect11"
         width="3297.7576"
         height="3300.5012"
         x="328.35455"
         y="326.85242" />
    </clipPath>
    <clipPath
       clipPathUnits="userSpaceOnUse"
       id="clipPath11">
      <rect
         style="opacity:0.27;fill:#000000;stroke-width:6.30549"
         id="rect12"
         width="3297.7576"
         height="3300.5012"
         x="328.35455"
         y="326.85242" />
    </clipPath>
    <clipPath
       clipPathUnits="userSpaceOnUse"
       id="clipPath12">
      <rect
         style="opacity:0.27;fill:#000000;stroke-width:6.30549"
         id="rect13"
         width="3297.7576"
         height="3300.5012"
         x="328.35455"
         y="326.85242" />
    </clipPath>
    <clipPath
       clipPathUnits="userSpaceOnUse"
       id="clipPath13">
      <rect
         style="opacity:0.27;fill:#000000;stroke-width:6.30549"
         id="rect14"
         width="3297.7576"
         height="3300.5012"
         x="328.35455"
         y="326.85242" />
    </clipPath>
    <clipPath
       clipPathUnits="userSpaceOnUse"
       id="clipPath14">
      <rect
         style="opacity:0.27;fill:#000000;stroke-width:6.30549"
         id="rect15"
         width="3297.7576"
         height="3300.5012"
         x="328.35455"
         y="326.85242" />
    </clipPath>
  </defs>
  <sodipodi:namedview
     id="namedview7"
     pagecolor="#505050"
     bordercolor="#ffffff"
     borderopacity="1"
     inkscape:showpageshadow="0"
     inkscape:pageopacity="0"
     inkscape:pagecheckerboard="1"
     inkscape:deskcolor="#505050"
     inkscape:zoom="0.14853817"
     inkscape:cx="5507.0019"
     inkscape:cy="1858.1082"
     inkscape:window-width="1718"
     inkscape:window-height="1360"
     inkscape:window-x="1713"
     inkscape:window-y="0"
     inkscape:window-maximized="0"
     inkscape:current-layer="svg7" />
  <path
     style="fill:#fdfaf6"
     d="m 1937.28,3616.636 c -70.232,-1.893 -138.304,-7.753 -204.96,-17.645 -191.499,-28.42 -380.97,-92.371 -549.6,-185.504 C 891.364,3252.574 654.44,3006.009 505.945,2709.172 412.831,2523.039 355.105,2317.044 338.467,2111.52 c -4.184,-51.682 -5.345,-81.292 -5.341,-136.32 0.007,-108.04 8.74,-202.447 28.377,-306.72 31.43,-166.902 93.134,-338.68 174.143,-484.8 C 594.054,1078.326 659.465,984.936 737.698,895.2 790.269,834.899 859.24,767.199 919.2,717.042 983.265,663.451 1051.51,614.362 1120.231,572.442 1429.03,384.067 1792.37,303.091 2152.8,342.32 c 234.101,25.478 460.029,100.875 660.96,220.578 226.172,134.74 417.675,322.599 556.49,545.902 59.24,95.298 105.696,190.33 145.288,297.21 77.982,210.511 112.063,439.589 98.821,664.23 -19.936,338.207 -142.628,660.133 -352.152,924 -95.899,120.771 -207.79,227.303 -332.767,316.83 -197.435,141.431 -425.068,237.332 -665.28,280.279 -106.614,19.061 -223.202,28.08 -326.88,25.287 z m 91.2,-84.8 c 105.958,-4.066 205.725,-17.043 298.08,-38.774 40.418,-9.51 43.835,-10.428 44.407,-11.92 0.388,-1.01 -1.838,-3.613 -7.04,-8.235 -32.13,-28.55 -68.073,-69.057 -104.812,-118.12 -8.697,-11.615 -16.026,-21.673 -16.287,-22.352 -0.684,-1.784 -2.872,-1.542 -10.9,1.201 -28.358,9.692 -87.637,27.186 -124.91,36.863 -82.375,21.386 -173.546,38.918 -252.298,48.517 -70.317,8.57 -125.22,12.304 -199.92,13.593 -30.986,0.535 -38.16,0.902 -38.16,1.95 0,1.45 18.132,15.238 32.382,24.625 16.865,11.109 27.326,17.153 46.818,27.05 41.198,20.92 78.572,32.77 120.96,38.355 20.513,2.703 74.412,6.307 113.28,7.574 21.13,0.69 76.72,0.504 98.4,-0.328 z m -510.745,-68.876 c -0.014,-0.924 -8.33,-9.955 -18.48,-20.07 l -18.455,-18.39 -10.56,-1.094 c -16.271,-1.687 -56.404,-7.424 -78.114,-11.167 -10.755,-1.854 -19.772,-3.153 -20.039,-2.886 -1.712,1.712 3.489,4.343 27.27,13.799 33.41,13.283 65.501,24.894 93.443,33.808 11.88,3.79 22.032,7.034 22.56,7.21 1.963,0.651 2.4,0.429 2.375,-1.21 z m 973.945,-17.87 c 10.915,-2.928 59.181,-21.575 91.68,-35.42 62.207,-26.5 132.155,-62.092 189.6,-96.475 70.237,-42.04 135.223,-88.09 198.24,-140.48 18.822,-15.647 22.33,-19.159 24.848,-24.875 6.618,-15.027 4.29,-52.011 -5.77,-91.68 -4.382,-17.279 -15.335,-51.058 -22.878,-70.56 -10.536,-27.238 -17.547,-43.2 -18.975,-43.2 -0.779,0 -10.552,7.266 -21.72,16.147 -135.26,107.564 -287.048,201.62 -446.065,276.403 -42.152,19.824 -103.957,46.32 -138.24,59.266 -8.184,3.09 -15.49,6.174 -16.235,6.851 -1.146,1.041 -0.09,2.913 6.816,12.083 31.573,41.921 69.546,83.387 95.387,104.158 22.5,18.086 42.919,28.829 55.152,29.017 1.848,0.028 5.52,-0.527 8.16,-1.235 z m -800.16,-97.599 c 156.197,-5.082 317.854,-32.693 478.56,-81.737 10.56,-3.223 19.78,-6.396 20.49,-7.052 1.065,-0.983 -0.552,-4.122 -9.2,-17.867 -18.728,-29.767 -57.22,-94.72 -72.747,-122.755 -8.335,-15.048 -18.693,-33.624 -23.019,-41.28 -4.326,-7.656 -15.973,-29.472 -25.882,-48.48 -9.91,-19.008 -18.39,-34.96 -18.846,-35.448 -0.507,-0.543 -2.05,-0.496 -3.972,0.12 -1.73,0.556 -16.32,5.146 -32.424,10.2 -128.442,40.308 -265.605,68.415 -394.08,80.753 -35.236,3.385 -34.178,3.297 -58.56,4.822 -48.028,3.002 -74.908,3.67 -127.456,3.17 -28.916,-0.277 -52.782,-0.168 -53.035,0.24 -1.329,2.15 33.57,73.203 53.272,108.463 20.598,36.862 45.113,74.719 69.316,107.04 21.624,28.877 27.171,35.367 30.9,36.152 4.107,0.865 36.626,2.775 61.873,3.635 32.187,1.095 71.612,1.105 104.81,0.025 z m -288.456,-20.17 c 0.34,-0.55 -4.117,-8.217 -9.902,-17.04 -40.855,-62.299 -72.661,-122.295 -105.914,-199.788 -6.21,-14.468 -11.791,-26.617 -12.405,-26.996 -0.614,-0.38 -4.42,-0.977 -8.46,-1.329 -33.712,-2.933 -111.45,-16.785 -159.836,-28.481 -107.473,-25.978 -203.827,-62.983 -292.74,-112.426 -15.959,-8.875 -18.927,-10.012 -18.927,-7.251 0,1.763 10.987,22.857 21.371,41.03 28.805,50.41 59.115,92.635 94.411,131.52 16.14,17.78 18.32,19.821 34.165,31.966 113.873,87.284 255.558,149.452 415.973,182.519 36.516,7.527 41.073,8.204 42.264,6.276 z m 902.938,-108.779 c 210.334,-81.175 418.5,-202.409 592.478,-345.054 8.427,-6.91 12.24,-10.648 12.24,-12.001 0,-5.524 -55.483,-106.6 -92.858,-169.167 -26.5,-44.361 -58.636,-95.52 -60.002,-95.52 -0.497,0 -10.48,7.682 -22.182,17.07 -92.337,74.08 -196.182,144.057 -303.038,204.205 -91.311,51.398 -182.068,94.565 -278.88,132.645 -34.42,13.539 -32.16,12.576 -32.16,13.696 0,1.893 30.091,58.36 53.033,99.518 30.381,54.504 65.728,113.577 98.029,163.826 0.594,0.924 1.985,1.68 3.091,1.68 1.107,0 14.719,-4.904 30.25,-10.898 z m 793.159,-165.022 c 91.6,-95.746 169.756,-200.93 234.145,-315.12 31.897,-56.566 60.631,-116.61 71.669,-149.76 17.025,-51.134 22.724,-114.339 15.968,-177.12 -0.824,-7.656 -1.734,-14.7 -2.022,-15.655 -1.003,-3.315 -3.69,-1.085 -7.883,6.543 -12.992,23.632 -45.54,76.256 -67.683,109.432 -41.986,62.904 -100.509,138.133 -156.458,201.12 -46.247,52.065 -116.363,122.37 -163.618,164.06 -3.827,3.377 -6.959,6.669 -6.959,7.316 0,0.647 1.992,5.66 4.426,11.14 25.706,57.87 47.678,121.78 56.066,163.084 2.556,12.588 2.52,12.48 4.198,12.48 0.764,0 8.932,-7.884 18.151,-17.52 z m -1588.779,-46.828 c 141.414,-6.563 271.97,-27.722 415.29,-67.306 32.484,-8.972 73.131,-21.618 74.777,-23.264 1.124,-1.124 -1.273,-6.646 -15.938,-36.722 -38.6,-79.16 -98.962,-212.928 -136.513,-302.52 -15.337,-36.594 -16.773,-39.6 -18.908,-39.6 -1.27,0 -12.764,3.219 -25.54,7.153 -135.372,41.685 -268.412,66.62 -399.55,74.888 -41.207,2.597 -93.039,3.606 -128.207,2.495 -17.662,-0.559 -33.085,-1.015 -34.273,-1.016 -1.623,0 -2.16,0.557 -2.16,2.242 0,4.01 13.267,78.189 18.744,104.798 12.042,58.512 26.332,116.326 41.404,167.52 15.1,51.288 33.941,106.948 36.698,108.412 0.855,0.455 11.922,1.327 24.594,1.938 12.672,0.612 24.552,1.233 26.4,1.38 9.585,0.762 104.806,0.454 123.182,-0.398 z m -268.663,-13.346 c 0.304,-0.491 -3.102,-12.263 -7.568,-26.16 -33.5,-104.236 -61.955,-226.007 -78.804,-337.225 -1.356,-8.954 -2.556,-16.358 -2.666,-16.452 -0.11,-0.096 -11.433,-1.772 -25.161,-3.726 -119.11,-16.956 -231.112,-50.33 -328.32,-97.834 -31.932,-15.605 -57.792,-30.03 -86.633,-48.326 -6.992,-4.436 -13.108,-7.821 -13.59,-7.523 -1.768,1.093 -2.136,19.158 -1.13,55.34 1.219,43.743 2.927,70.044 6.766,104.132 5.189,46.07 11.706,84.683 21.136,125.228 4.238,18.224 11.083,44.403 12.593,48.167 2.103,5.24 56.034,43.327 91.098,64.336 112.412,67.351 240.76,112.972 384,136.492 11.352,1.864 21.72,3.567 23.04,3.786 4.212,0.697 4.676,0.677 5.239,-0.235 z m 872.718,-117.032 c 79.997,-31.399 150.04,-63.487 224.95,-103.057 123.51,-65.242 245.296,-145.198 348.941,-229.09 12.06,-9.762 22.151,-18.33 22.423,-19.039 1.192,-3.107 -87.797,-131.532 -150.897,-217.768 -54.226,-74.108 -89.776,-120.703 -91.704,-120.2 -0.864,0.227 -11.043,7.959 -22.62,17.184 -80.57,64.197 -169.248,123.824 -260.58,175.216 -83.394,46.924 -163.21,84.764 -254.63,120.717 -14.896,5.858 -18.96,7.828 -18.96,9.191 0,2.7 30.693,75.097 58.798,138.692 29.613,67.008 68.81,151.625 94.22,203.402 17.792,36.255 17.852,36.36 20.53,35.824 1.478,-0.295 14.766,-5.278 29.53,-11.072 z m 885.356,-91.686 c 138.8,-129.622 258.281,-280.419 343.926,-434.068 15.39,-27.61 42.201,-80.254 42.201,-82.861 0,-5.93 -22.054,-57.434 -38.923,-90.899 -19.308,-38.304 -36.878,-68.842 -61.861,-107.52 -16.785,-25.986 -39.928,-58.56 -41.605,-58.56 -0.622,0 -2.58,2.808 -4.352,6.24 -7.505,14.538 -27.294,49.978 -38.733,69.367 -94.203,159.668 -223.062,315.287 -371.101,448.165 -3.292,2.954 -5.985,5.833 -5.985,6.396 0,0.564 8.49,14.346 18.865,30.628 38.672,60.684 93.31,154.407 125.822,215.827 6.11,11.543 8.865,15.857 10.126,15.857 0.953,0 10.682,-8.357 21.62,-18.572 z M 627.51,2679.796 c 0.313,-0.816 -0.57,-9.564 -1.962,-19.44 -4.652,-33.008 -7.493,-59.818 -9.784,-92.356 -2.145,-30.464 -2.903,-111.915 -1.376,-147.798 l 1.204,-28.278 -8.011,-7.242 c -35.28,-31.893 -63.473,-61.742 -90.719,-96.042 -29.29,-36.875 -59.678,-84.14 -79.463,-123.6 -3.265,-6.513 -5.983,-10.8 -6.847,-10.8 -1.775,0 -1.775,0.287 0.056,20.517 7.173,79.288 34.892,203.626 61.528,275.99 10.868,29.527 21.237,53.316 35.834,82.213 18.856,37.326 37.224,67.873 60.03,99.831 11.96,16.76 36.913,48.489 38.134,48.489 0.443,0 1.062,-0.668 1.376,-1.484 z m 726.57,-142.525 c 140.482,-4.633 278.647,-28.11 421.44,-71.609 22.081,-6.727 22.56,-6.923 22.56,-9.235 0,-1.046 -18.392,-49.053 -40.87,-106.684 -36.603,-93.84 -45.041,-116.59 -80.796,-217.823 -26.855,-76.035 -40.358,-113.04 -41.247,-113.04 -0.727,0 -8.325,2.14 -16.885,4.757 -84.118,25.713 -178.867,44.226 -262.762,51.342 -37.232,3.158 -54.797,3.838 -99.941,3.87 l -46.662,0.031 -0.611,14.4 c -0.336,7.92 -0.895,39.672 -1.242,70.56 -1.179,105.095 3.584,212.534 14.043,316.8 2.092,20.856 4.301,41.676 4.91,46.266 1.105,8.346 1.105,8.346 6.024,8.893 18.434,2.049 81.498,2.81 122.039,1.472 z m -213.338,-13.911 c -0.12,-1.584 -1.952,-20.592 -4.073,-42.24 -6.404,-65.37 -10.023,-120.384 -12.694,-192.96 -1.358,-36.884 -1.345,-167.364 0.019,-196.31 0.676,-14.351 0.666,-20.82 -0.034,-21.253 -0.554,-0.342 -3.219,-0.905 -5.923,-1.252 -10.972,-1.404 -40.46,-6.561 -55.798,-9.758 -94.76,-19.751 -184.575,-55.263 -255.143,-100.881 -5.16,-3.336 -10.193,-6.066 -11.182,-6.066 -2.136,0 -2.739,1.597 -16.305,43.2 -37.826,115.995 -61.885,225.334 -73.973,336.175 -1.076,9.865 -1.944,19.153 -1.929,20.64 0.024,2.337 1.625,3.881 11.76,11.345 107.502,79.166 244.79,133.916 398.132,158.774 9.769,1.583 18.84,3.07 20.16,3.301 1.32,0.233 3.48,0.365 4.8,0.294 2.052,-0.11 2.369,-0.548 2.183,-3.009 z m 1655.738,-72.606 c 157.557,-146.256 287.277,-314.43 375.025,-486.198 7.576,-14.83 13.775,-27.492 13.775,-28.137 0,-2.738 -42.382,-50.649 -77.366,-87.459 -40.455,-42.567 -85.134,-85.053 -141.93,-134.966 -17.633,-15.497 -62.275,-52.234 -63.472,-52.234 -0.71,0 -3.31,3.78 -5.777,8.4 -49.453,92.609 -99.401,168.611 -163.245,248.4 -53.562,66.94 -118.918,137.03 -182.102,195.295 -10.706,9.872 -17.857,17.158 -17.571,17.902 0.264,0.69 12.744,17.371 27.732,37.069 58.672,77.108 150.786,205.49 194.946,271.698 10.32,15.474 19.017,27.574 19.825,27.586 0.792,0.012 9.864,-7.799 20.16,-17.356 z m -900.687,-26.825 c 175.638,-67.888 350.45,-168.185 498.207,-285.843 12.276,-9.775 22.32,-18.243 22.32,-18.817 0,-0.574 -32.724,-41.871 -72.72,-91.771 -61.674,-76.947 -84.224,-104.177 -148.456,-179.273 -42.71,-49.934 -76.409,-88.538 -77.28,-88.53 -0.849,0.01 -6.512,3.941 -12.584,8.738 -110.387,87.214 -236.005,160.246 -365.52,212.507 -20.28,8.183 -23.28,9.66 -23.28,11.46 0,1.136 17.881,52.595 39.736,114.353 35.33,99.836 44.22,123.765 80.165,215.799 22.236,56.932 40.874,104.344 41.417,105.36 0.544,1.016 1.421,1.848 1.949,1.848 0.527,0 7.748,-2.624 16.046,-5.831 z m 1598.811,-103.192 c 1.558,-5.562 13.237,-64.601 16.036,-81.062 3.46,-20.354 9.68,-63.228 9.68,-66.73 0,-1.788 -0.44,-2.435 -1.508,-2.215 -0.998,0.205 -4.036,7.125 -8.987,20.47 -8.915,24.03 -18.832,48.81 -26.855,67.096 -3.217,7.334 -5.85,13.951 -5.85,14.704 0,0.754 1.706,7.064 3.792,14.025 2.085,6.96 4.902,17.191 6.26,22.735 2.926,11.947 3.988,14.68 5.51,14.173 0.623,-0.208 1.488,-1.646 1.922,-3.196 z M 626.343,2283.932 c 0.295,-0.477 1.596,-8.145 2.892,-17.04 13.92,-95.527 37.515,-194.265 71.085,-297.452 5.668,-17.424 13.495,-40.378 17.393,-51.008 3.898,-10.631 7.087,-19.885 7.087,-20.564 0,-0.679 -9.625,-10.989 -21.39,-22.911 -22.196,-22.495 -35.566,-37.821 -51.57,-59.117 -32.278,-42.95 -58.297,-90.464 -76.753,-140.16 -2.745,-7.392 -5.372,-13.832 -5.838,-14.311 -1.488,-1.53 -3.62,1.228 -12.844,16.61 -15.651,26.103 -25.538,44.054 -37.763,68.569 -28.79,57.733 -47.818,106.556 -63.296,162.412 -7.25,26.163 -7.287,28.565 -0.89,57.116 26.005,116.055 80.105,220.305 159.29,306.95 5.903,6.46 11.033,11.752 11.397,11.76 0.365,0.01 0.905,-0.376 1.2,-0.854 z M 3436.82,2147.76 c 23.093,-62.96 42.776,-137.676 53.803,-204.24 9.956,-60.1 13.722,-105.826 13.636,-165.6 -0.067,-47.216 -1.835,-74.854 -7.554,-118.08 -2.406,-18.184 -2.732,-19.489 -11.418,-45.6 -11.935,-35.876 -29.09,-76.302 -45.83,-108 -16.436,-31.12 -42.602,-73.92 -45.192,-73.92 -1.068,0 -1.445,4.632 -1.976,24.24 -1.185,43.809 -3.255,71.788 -8.361,113.04 -13,105.017 -43.43,217.91 -87.335,324 -5.9,14.256 -10.936,27.055 -11.192,28.443 -0.386,2.098 2.188,6.055 15.303,23.52 49.526,65.955 89.023,128.825 120.39,191.632 6.576,13.168 9.951,18.957 11.055,18.96 1.125,0 2.49,-2.451 4.67,-8.395 z m -935.75,-101.887 c 122.978,-114.423 227.83,-246.506 303.779,-382.673 15.382,-27.578 28.126,-52.504 28.07,-54.901 -0.045,-1.987 -4.135,-5.106 -46.999,-35.846 -73.05,-52.39 -147.11,-100.357 -227.04,-147.051 -44.737,-26.135 -108.412,-61.243 -111.073,-61.241 -0.686,0 -3.147,3.565 -5.469,7.92 -59.041,110.751 -140.963,217.571 -237.204,309.297 -12.152,11.581 -22.094,21.617 -22.094,22.3 0,0.685 34.47,41.537 76.6,90.783 65.007,75.987 87.462,103.089 148.357,179.059 39.465,49.236 72.4,89.52 73.189,89.52 0.788,0 9.736,-7.725 19.884,-17.167 z m -1170.51,-53.326 c 67.99,-4.893 131.92,-15.025 200.16,-31.723 30.736,-7.521 75.373,-20.288 77.17,-22.072 1.132,-1.124 -3.964,-18.007 -34.251,-113.476 -34.919,-110.068 -63.871,-207.086 -82.745,-277.276 -11.607,-43.16 -12.347,-45.6 -13.84,-45.6 -0.697,0 -9.643,2.116 -19.88,4.703 -53.572,13.533 -100.495,20.073 -150.296,20.945 l -28.963,0.507 -1.57,6.842 c -8.823,38.461 -25.973,132.749 -34.566,190.041 -12.223,81.493 -24.125,190.943 -27.964,257.15 l -0.65,11.228 5.657,0.418 c 12.651,0.934 91.958,-0.264 111.738,-1.687 z m -201.223,-8.785 c 0.32,-0.836 0.583,-3.833 0.583,-6.661 0,-8.724 6.524,-83.943 10.594,-122.138 10.46,-98.173 24.464,-190.133 43.797,-287.604 7.415,-37.381 9.043,-47.04 8.035,-47.663 -0.695,-0.43 -3.901,-1.283 -7.125,-1.898 -41.57,-7.923 -94.909,-27.622 -128.798,-47.567 -4.926,-2.9 -9.574,-5.271 -10.33,-5.271 -1.411,0 -17.43,23.51 -40.226,59.04 -44.59,69.496 -91.01,152.492 -127.096,227.236 -21.597,44.735 -52.211,114.024 -52.211,118.17 0,1.584 27.814,20.332 44.974,30.314 72.034,41.902 148.395,68.33 243.986,84.442 8.634,1.455 13.155,1.324 13.817,-0.4 z m 569.54,-76.6 c 4.666,-1.781 15.395,-6.146 23.843,-9.7 96.029,-40.396 189.264,-92.335 274.08,-152.683 31.604,-22.486 64.32,-47.82 64.32,-49.805 0,-2.2 -154.886,-170.841 -201.555,-219.454 -51.795,-53.953 -108.383,-111.36 -109.771,-111.36 -0.497,0 -7.224,4.695 -14.95,10.433 -47.97,35.636 -105.925,69.097 -159.004,91.802 -8.448,3.614 -15.948,7.1 -16.666,7.748 -1.088,0.981 0.72,8.653 10.875,46.157 22.177,81.897 48.005,168.702 83.21,279.663 19.007,59.908 34.77,109.264 35.027,109.68 0.722,1.17 1.514,0.984 10.592,-2.481 z m 1525.56,-59.402 c 2.577,-3.117 21.013,-53.235 29.861,-81.177 25.52,-80.588 41.6,-156.56 49.01,-231.543 6.878,-69.61 6.217,-142.41 -1.879,-206.88 l -1.929,-15.36 -20.39,-20.17 c -64.963,-64.26 -138.528,-119.58 -227.714,-171.238 -11.069,-6.41 -20.539,-11.518 -21.046,-11.349 -0.57,0.19 -0.97,19.826 -1.048,51.612 -0.13,52.175 -0.67,63.406 -4.877,101.225 -10.873,97.768 -36.34,196.158 -76.628,296.042 -4.552,11.287 -8.277,21.317 -8.277,22.288 0,1.122 5.334,6.056 14.64,13.542 43.764,35.204 88.603,74.16 131.28,114.06 33.87,31.664 91.043,89.502 116.603,117.957 10.962,12.205 20.263,22.191 20.667,22.191 0.404,0 1.181,-0.54 1.727,-1.2 z M 761.472,1806 c 37.725,-85.847 67.508,-146.003 107.3,-216.72 29.89,-53.12 67.73,-114.34 99.509,-160.989 6.005,-8.816 10.919,-16.633 10.919,-17.371 0,-0.738 -0.929,-2.165 -2.064,-3.171 -4.043,-3.583 -18.715,-21.192 -25.92,-31.109 -14.584,-20.072 -26.404,-40.932 -35.359,-62.4 -4.734,-11.35 -6.02,-13.278 -7.889,-11.823 -0.686,0.535 -8.808,6.74 -18.048,13.79 -92.14,70.296 -175.204,149.654 -239.603,228.913 -16.611,20.444 -18.637,23.108 -18.637,24.503 0,2.414 5.076,23.928 8.829,37.417 17.402,62.549 51.054,126.534 93.005,176.837 11.097,13.305 23.45,26.64 24.7,26.661 0.69,0.012 2.156,-2.03 3.258,-4.538 z M 453.856,1688.4 c 20.454,-39.055 51.137,-88.723 78.43,-126.96 10.28,-14.4 10.28,-14.4 9.735,-19.68 -0.3,-2.904 -1.188,-11.328 -1.975,-18.72 -4.472,-42.034 -3.431,-96.397 2.828,-147.785 0.768,-6.305 1.21,-11.65 0.983,-11.878 -2.013,-2.013 -6.745,8.305 -22.813,49.743 -32.845,84.703 -56.52,167.204 -70.248,244.8 -1.898,10.729 -6.316,40.701 -6.316,42.85 0,0.192 0.61,0.35 1.357,0.35 0.766,0 4.259,-5.54 8.02,-12.72 z m 1684.21,-58.974 c 25.796,-24.131 60.146,-59.637 83.426,-86.233 55.018,-62.853 103.275,-131.189 139.985,-198.229 5.348,-9.766 9.723,-18.442 9.723,-19.281 0,-1.032 -6.134,-4.502 -18.96,-10.724 -117,-56.762 -237.549,-106.581 -355.92,-147.091 -36.989,-12.659 -56.133,-18.764 -58.669,-18.71 -1.302,0.029 -3.834,3.585 -9.011,12.66 -24.938,43.708 -60.254,89.897 -100.08,130.888 -7.788,8.017 -14.16,15.156 -14.16,15.866 0,0.71 16.579,17.936 36.842,38.28 60.485,60.725 108.835,111.822 193.29,204.268 51.222,56.068 80.672,87.6 81.814,87.6 0.982,0 6.256,-4.182 11.72,-9.294 z m 732.087,-102.306 c 0.522,-0.66 3.21,-7.032 5.972,-14.16 39.803,-102.708 61.88,-200.033 68.161,-300.48 1.251,-20.003 1.264,-78.467 0.021,-97.44 -1.221,-18.651 -3.825,-45.934 -4.695,-49.185 -0.566,-2.118 -2.441,-3.33 -11.186,-7.233 -108.534,-48.443 -217.246,-83.058 -342.666,-109.107 -17.952,-3.729 -34.758,-7.067 -37.346,-7.418 l -4.706,-0.638 0.68,7.497 c 1.016,11.22 0.752,63.244 -0.404,79.684 -5.513,78.332 -23.198,157.2 -52.488,234.08 -7.664,20.114 -8.659,23.393 -7.453,24.548 0.504,0.483 7.471,4.348 15.482,8.59 41.408,21.921 117.269,65.442 161.853,92.854 27.029,16.619 83.41,53.083 111.13,71.873 22.488,15.244 81.316,56.793 91.652,64.732 4.368,3.355 4.69,3.452 5.993,1.803 z m -2240.84,-86.4 c 68.423,-74.697 139.327,-138.68 223.575,-201.75 12.76,-9.554 26.227,-19.489 29.925,-22.078 l 6.723,-4.709 -0.034,-28.411 c -0.02,-17.108 0.453,-32.613 1.19,-38.972 2.366,-20.397 6.066,-41.901 9.857,-57.28 2.664,-10.81 3.522,-15.833 2.823,-16.532 -3,-3 -70.13,20.09 -108.348,37.267 -35.373,15.898 -81.626,42.062 -101.796,57.582 -5.58,4.294 -5.58,4.294 -13.958,24.269 -26.019,62.04 -44.808,130.402 -52.324,190.374 -2.624,20.943 -4.84,46.606 -4.854,56.24 -0.017,10.947 0.564,11.269 7.222,4 z m 724.09,0.311 c 29.007,-3.4 55.725,-8.194 81.317,-14.59 19.934,-4.982 21.6,-5.571 21.6,-7.645 0,-1.027 -4.94,-21.625 -10.979,-45.772 -13.678,-54.699 -33.862,-142.851 -43.574,-190.304 -6.6,-32.25 -7.558,-36 -9.204,-36 -1.497,0 -3.056,3.197 -8.426,17.28 -17.162,45.006 -41.189,117.425 -57.808,174.24 -11.234,38.405 -26.386,94.835 -27.17,101.189 l -0.582,4.709 19.112,-0.58 c 10.51,-0.32 26.583,-1.456 35.715,-2.527 z m -137.61,-14.711 c 12.996,-55.857 47.542,-172.015 70.9,-238.401 8.793,-24.993 8.954,-25.599 6.697,-25.19 -2.232,0.403 -42.436,43.024 -71.827,76.144 -49.49,55.77 -125.243,150.113 -125.243,155.979 0,1.551 3.727,3.783 18.96,11.356 19.336,9.612 35.524,16.094 53.214,21.309 12.55,3.699 37.753,9.46 41.746,9.54 3.04,0.063 3.04,0.063 5.552,-10.737 z m 343.434,-44.41 c 40.42,-18.978 78.225,-41.089 116.255,-67.992 8.687,-6.145 12.2,-9.175 12,-10.349 -1,-5.884 -208.731,-197.628 -214.122,-197.644 -0.924,0 -1.68,0.11 -1.68,0.25 0,0.14 4.51,22.28 10.023,49.2 13.729,67.044 40.176,181.923 53.45,232.172 0.906,3.433 1.184,3.666 3.763,3.15 1.531,-0.306 10.671,-4.26 20.31,-8.786 z m -521.425,-51.093 c 21.647,-29.282 86.592,-109.507 104.902,-129.584 2.786,-3.054 13.09,-14.625 22.896,-25.713 9.808,-11.088 24.146,-26.856 31.864,-35.04 12.343,-13.089 16.08,-18.24 13.231,-18.24 -0.454,0 -11.578,5.336 -24.72,11.859 -57.446,28.51 -100.086,52.052 -154.455,85.277 -39.679,24.248 -48.48,30.166 -48.48,32.594 0,5.793 8.046,26.76 17.081,44.51 8.851,17.388 26.567,42.72 29.877,42.72 0.907,0 4.308,-3.653 7.805,-8.383 z m 732.063,-98.417 c 16.996,-17.375 30.546,-33.007 45.893,-52.947 15.332,-19.92 37.042,-52.225 37.042,-55.12 0,-1.67 -1.334,-2.092 -37.305,-11.809 -62.943,-17.002 -130.136,-32.559 -190.695,-44.151 -25.583,-4.897 -73.96,-13.333 -76.462,-13.333 -3.188,0 2.75,6.022 28.702,29.11 38.144,33.932 106.814,97.737 145.014,134.74 16.53,16.01 30.615,29.11 31.302,29.11 0.687,0 8.116,-7.02 16.509,-15.6 z m 639.839,10.08 c 1.075,-2.508 4.697,-12.12 8.048,-21.36 20.421,-56.307 34.346,-116.304 40.327,-173.76 3.463,-33.259 3.818,-81.922 0.83,-113.402 l -0.605,-6.362 -18.832,-2.533 c -45.66,-6.141 -110.155,-11.702 -170.512,-14.702 -50.24,-2.496 -157.76,-2.206 -210.24,0.567 -21.648,1.144 -44.112,2.498 -49.92,3.008 -5.808,0.51 -10.884,0.931 -11.28,0.936 -0.396,0.005 -0.721,7.028 -0.723,15.608 -0.01,35.908 -6.775,78.738 -18.468,116.88 -7.354,23.99 -7.129,23.008 -5.501,24.037 0.777,0.491 5.516,2.255 10.532,3.92 135.203,44.89 252.281,91.61 376.8,150.362 20.064,9.467 38.208,18.127 40.32,19.244 5.8,3.069 6.996,2.752 9.224,-2.443 z m 851.416,-82.325 c 0,-1.409 -8.848,-24.21 -15.085,-38.875 -32.371,-76.106 -78.574,-148.859 -133.516,-210.24 -54.286,-60.648 -142.242,-139.366 -198.294,-177.466 -7.76,-5.275 -10.673,-6.79 -11.487,-5.977 -0.798,0.8 -0.807,1.533 -0.031,2.747 l 8.73,13.656 c 37.956,59.367 67.37,125.18 88.173,197.28 4.609,15.973 11.47,43.941 14.72,60 1.068,5.28 1.068,5.28 12.809,11.249 78.56,39.939 155.99,89.211 220.859,140.543 8.095,6.406 13.122,9.12 13.122,7.083 z M 999.233,1140.64 c 29.208,-17.833 76.947,-44.652 111.327,-62.542 23.966,-12.47 85.262,-42.568 92.08,-45.213 2.274,-0.882 3.014,-3.774 0.96,-3.753 -11.123,0.112 -59.13,2.257 -75.12,3.355 -35.61,2.447 -78.55,7.243 -108.773,12.148 -21.702,3.523 -19.151,1.215 -26.995,24.423 -8.424,24.926 -15.017,54.26 -17.83,79.342 -0.536,4.772 -0.402,5.52 0.99,5.52 0.886,0 11.398,-5.976 23.36,-13.28 z m 894.666,-103.6 c 11.284,-32.305 18.39,-71.391 18.412,-101.28 0.01,-14.386 2.265,-13.31 -21.646,-10.338 -54.309,6.75 -121.87,17.9 -177.466,29.289 -40.889,8.376 -99.206,21.952 -100.696,23.441 -0.658,0.659 -0.708,1.365 -0.135,1.9 0.502,0.469 11.712,2.881 24.912,5.36 71.256,13.388 174.424,38.04 236.64,56.548 6.072,1.806 12.391,3.328 14.042,3.382 2.93,0.096 3.073,-0.103 5.937,-8.302 z M 790.378,1019.422 c 37.095,-14.886 95.578,-33.035 135.675,-42.105 7.319,-1.655 14.023,-3.221 14.9,-3.48 0.875,-0.259 3.433,-4.018 5.685,-8.354 23.252,-44.782 58.075,-93.329 98.476,-137.287 8.139,-8.856 13.73,-15.703 13.441,-16.457 -0.602,-1.57 -21.013,-9.671 -36.155,-14.351 -12.65,-3.91 -26.92,-6.877 -37.663,-7.831 l -7.423,-0.66 -12.67,11.392 c -15.374,13.823 -44.937,42.552 -65.134,63.297 -36.901,37.901 -76.875,85.374 -106.975,127.043 -19.66,27.216 -25.315,36.571 -22.108,36.571 0.313,0 9.29,-3.5 19.95,-7.778 z M 2917.143,960.35 c 1.3,-3.388 -12.832,-44.296 -25.778,-74.624 -27.505,-64.431 -62.279,-120.268 -108.938,-174.923 -14.466,-16.946 -48.586,-51.32 -65.948,-66.44 -13.98,-12.174 -11.373,-11.025 -43.839,-19.33 -71.969,-18.41 -151.494,-27.595 -232.033,-26.798 -23.879,0.236 -33.147,0.64 -33.984,1.477 -0.895,0.895 0.356,2.941 5.617,9.189 54.032,64.163 93.4,141.916 115.05,227.223 2.339,9.22 4.572,17.067 4.962,17.437 0.39,0.37 8.7,2.04 18.468,3.708 60.69,10.37 146.914,31.018 212.64,50.922 51.789,15.684 119.79,39.604 148.32,52.174 4.286,1.888 4.733,1.887 5.463,-0.015 z M 1083.84,951.86 c 22.744,-2.277 54.031,-4.502 82.278,-5.85 7.501,-0.359 34.466,-0.921 59.921,-1.25 31.797,-0.412 46.391,-0.925 46.628,-1.637 1.078,-3.245 -127.559,-89.683 -133.466,-89.683 -1.625,0 -33.982,32.858 -45.377,46.08 -20.198,23.436 -42.327,52.87 -41.163,54.753 0.396,0.642 2.043,0.84 4.157,0.501 1.926,-0.308 14.086,-1.62 27.022,-2.915 z m 267.347,-58.08 c 0.32,-0.516 -0.72,-11.856 -2.309,-25.2 -4.868,-40.883 -8.553,-83.965 -10.694,-125.06 -0.578,-11.088 -1.415,-20.536 -1.86,-20.995 -0.878,-0.905 -36.994,16.595 -54.244,26.285 -29.477,16.556 -72.48,44.443 -72.48,47.002 0,0.837 3.094,3.407 6.96,5.782 24.785,15.225 82.696,55.386 115.44,80.058 9.504,7.16 17.578,13.03 17.943,13.044 0.365,0.013 0.925,-0.399 1.244,-0.915 z m 293.651,-10.026 c 69.986,-16.412 156.562,-31.541 248.042,-43.345 5.053,-0.652 5.137,-1.535 1.117,-11.664 -8.582,-21.617 -27.059,-50.626 -43.315,-68.004 -3.182,-3.4 -6.602,-6.181 -7.605,-6.181 -4.412,0 -70.275,35.464 -114.207,61.495 -43.32,25.669 -108.524,67.828 -110.577,71.496 -1.317,2.354 2.865,1.756 26.545,-3.797 z M 1444.265,833.76 c 28.347,-50.399 63.967,-106.228 94.572,-148.227 8.887,-12.196 13.247,-18.953 12.63,-19.57 -2.047,-2.047 -52.145,4.83 -82.227,11.288 -13.932,2.99 -44.387,10.948 -46.888,12.251 -1.713,0.893 -1.774,1.957 -1.163,20.28 1.35,40.453 3.325,71.095 7.31,113.418 2.557,27.145 2.774,28.478 4.57,28.128 0.812,-0.158 5.85,-8.064 11.196,-17.568 z m 996.615,4.938 c 0.275,-0.716 -2.126,-9.169 -5.335,-18.783 -19.229,-57.612 -51.426,-114.637 -90.56,-160.395 -10.228,-11.959 -34.9,-37.32 -44.631,-45.879 l -6.047,-5.317 -22.753,3.57 c -81.334,12.765 -167.655,35.14 -249.314,64.621 -43.98,15.879 -96.802,37.536 -97.254,39.874 -0.162,0.836 2.47,5.123 5.848,9.526 22.201,28.937 39.876,63.453 51.168,99.925 1.099,3.55 2.23,5.52 3.168,5.52 0.803,0 9.472,-0.647 19.265,-1.437 119.773,-9.67 273.18,-7.286 396.045,6.154 39.366,4.306 39.744,4.33 40.4,2.62 z m -877.218,-16.381 c 61.406,-42.179 121.643,-79.542 176.818,-109.676 13.903,-7.593 22.56,-12.872 22.56,-13.758 0,-1.986 -22.955,-11.42 -42.24,-17.358 -17.773,-5.474 -31.298,-8.656 -49.252,-11.59 l -12.771,-2.087 -3.069,3.682 c -27.892,33.473 -61.39,79.185 -86.52,118.07 -23.974,37.095 -29.28,46.56 -26.104,46.56 0.234,0 9.494,-6.23 20.578,-13.843 z M 1142.94,739.571 c 53.843,-41.004 114.087,-75.87 175.62,-101.641 7.92,-3.317 15.527,-6.554 16.905,-7.193 2.401,-1.114 2.53,-1.582 3.154,-11.39 0.931,-14.675 3.24,-35.3 5.437,-48.562 1.173,-7.082 1.556,-11.797 1.003,-12.35 -2.147,-2.147 -86.562,38.739 -127.779,61.887 -42.186,23.693 -79.68,47.008 -115.68,71.932 -25.383,17.574 -38.4,27.294 -38.4,28.673 0,1.678 0.51,1.928 17.76,8.71 8.184,3.218 21.576,9.02 29.76,12.896 8.184,3.874 15.771,7.086 16.86,7.136 1.132,0.052 7.71,-4.272 15.36,-10.098 z m 732.16,-94.05 c 71.037,-31.634 146.34,-59.163 217.7,-79.586 20.27,-5.8 72.856,-19.092 89.52,-22.627 8.066,-1.71 10.32,-2.534 10.32,-3.773 0,-1.113 -6.492,-4.753 -21.84,-12.246 -24.87,-12.14 -29.744,-14.296 -51.37,-22.719 -54.01,-21.034 -115.317,-36.145 -179.454,-44.233 l -19.865,-2.504 -12.775,6.104 c -45.247,21.618 -95.242,54.713 -138.056,91.388 -15.575,13.342 -42.24,37.879 -42.24,38.87 0,1.545 2.585,2.742 11.52,5.333 39.473,11.447 76.226,27.909 107.04,47.943 5.28,3.433 9.915,6.253 10.3,6.266 0.384,0.012 9.024,-3.684 19.2,-8.216 z m -433.049,-47.876 c 52.529,-12.63 119.213,-20.033 164.989,-18.317 l 16.8,0.63 15.84,-16.933 c 32.182,-34.402 71.113,-69.779 108.24,-98.359 4.356,-3.353 7.92,-6.472 7.92,-6.931 0,-1.813 -3.725,-1.988 -18.124,-0.855 -87.117,6.856 -186.645,26.961 -273.43,55.232 -18.775,6.117 -18.195,5.66 -23.821,18.804 -3.949,9.224 -7.31,20.55 -10.104,34.044 -2.683,12.954 -5.792,34.148 -5.16,35.172 0.78,1.263 2.004,1.082 16.85,-2.487 z M 2354.4,517.454 c 33.402,-2.884 74.882,-4.177 112.628,-3.512 30.94,0.545 33.882,0.46 33.6,-0.958 -0.68,-3.429 -62.764,-25.963 -108.308,-39.313 -59.588,-17.465 -130.368,-32.266 -201.12,-42.057 -28.47,-3.94 -29.53,-4.012 -29.136,-2.015 0.233,1.185 4.996,3.712 15.526,8.239 47.805,20.55 92.575,46.066 132.65,75.6 9.6,7.075 9.6,7.075 16.32,6.457 3.696,-0.34 16.224,-1.439 27.84,-2.441 z"
     transform="matrix(1.2023744,0,0,1.2019075,-401.01838,-399.74109)"
     id="path7"
     clip-path="url(#clipPath8)" />
</svg>
