<?xml version="1.0" standalone="no"?>
<!DOCTYPE svg PUBLIC "-//W3C//DTD SVG 20010904//EN"
 "http://www.w3.org/TR/2001/REC-SVG-20010904/DTD/svg10.dtd">
<svg version="1.0" xmlns="http://www.w3.org/2000/svg"
 width="4113.000000pt" height="4113.000000pt" viewBox="0 0 4113.000000 4113.000000"
 preserveAspectRatio="xMidYMid meet">
<metadata>
Created by potrace 1.14, written by Peter Selinger 2001-2017
</metadata>
<g transform="translate(0.000000,4113.000000) scale(0.100000,-0.100000)"
fill="#000000" stroke="none">
<path d="M20245 37673 c-1776 -27 -3640 -360 -5320 -950 -1968 -690 -3748
-1704 -5360 -3052 -625 -523 -1343 -1228 -1891 -1856 -1747 -2005 -2990 -4348
-3663 -6911 -221 -840 -385 -1758 -471 -2629 -58 -590 -80 -1063 -80 -1720 0
-713 25 -1207 96 -1860 455 -4216 2465 -8106 5654 -10941 1417 -1259 3059
-2288 4809 -3014 2880 -1194 6054 -1574 9171 -1099 2129 325 4202 1063 6065
2162 1815 1071 3420 2469 4736 4127 1419 1787 2470 3851 3078 6046 908 3279
817 6803 -261 10019 -1053 3143 -2994 5908 -5598 7976 -2641 2098 -5810 3356
-9175 3644 -423 36 -1204 68 -1520 63 -66 -1 -187 -3 -270 -5z m2560 -1049
c564 -77 1313 -224 1775 -348 417 -111 925 -276 1251 -405 l224 -89 -365 5
c-488 8 -1133 -20 -1470 -63 -44 -6 -48 -3 -145 68 -421 310 -925 595 -1415
803 -74 32 -137 60 -140 62 -6 6 30 2 285 -33z m-4525 -257 c0 -2 -37 -32 -82
-67 -386 -297 -790 -664 -1128 -1024 l-165 -176 -175 6 c-483 18 -1181 -60
-1729 -191 -79 -19 -144 -35 -146 -35 -6 0 28 211 55 343 44 212 130 461 173
495 17 14 323 112 587 189 559 161 1160 291 1730 372 365 53 880 104 880 88z
m1985 -53 c708 -92 1440 -289 2057 -554 112 -48 508 -243 508 -250 0 -3 -42
-14 -92 -24 -146 -29 -743 -180 -958 -241 -762 -218 -1552 -510 -2336 -863
l-111 -50 -99 65 c-297 192 -652 357 -1009 468 -82 26 -168 52 -189 59 l-39
12 159 146 c500 460 947 789 1445 1062 232 127 399 204 436 199 15 -1 118 -15
228 -29z m-6271 -1084 c-19 -107 -52 -405 -60 -537 -4 -66 -11 -114 -18 -116
-770 -314 -1409 -675 -2020 -1141 -77 -58 -142 -106 -146 -106 -3 0 -87 38
-187 84 -176 83 -451 196 -473 196 -21 0 -1 17 137 117 652 471 1327 879 2058
1243 263 132 716 343 721 337 1 -1 -5 -36 -12 -77z m12051 -355 c748 -47 1326
-140 1968 -317 l148 -41 127 -110 c180 -157 535 -515 686 -691 629 -738 1067
-1520 1360 -2434 25 -79 46 -148 46 -153 0 -4 -21 1 -47 12 -341 147 -1035
391 -1574 553 -658 198 -1527 405 -2164 515 l-210 37 -37 149 c-174 699 -451
1327 -841 1909 -88 131 -283 392 -376 501 l-59 70 37 6 c75 13 700 9 936 -6z
m-2040 -198 c541 -506 922 -1050 1210 -1723 63 -146 209 -554 201 -561 -1 -1
-168 15 -372 37 -1331 142 -2940 167 -4188 65 -99 -8 -180 -14 -181 -12 0 1
-9 29 -19 62 -28 95 -122 335 -176 450 -88 188 -222 407 -357 584 -36 46 -61
87 -56 91 13 12 451 191 698 285 848 323 1640 551 2480 715 169 33 595 105
640 109 6 1 60 -45 120 -102z m-7987 -679 c-322 -443 -728 -1082 -1014 -1596
l-79 -143 -7 48 c-39 271 -95 1075 -100 1448 l-3 179 135 38 c198 56 409 103
635 143 177 31 472 71 547 74 25 1 17 -13 -114 -191z m1387 142 c274 -43 629
-147 909 -269 l50 -22 -249 -136 c-572 -311 -1193 -697 -1836 -1138 -115 -79
-209 -142 -209 -139 0 6 142 237 250 404 255 399 593 866 885 1223 69 84 83
96 105 92 14 -2 57 -9 95 -15z m-3476 -770 c22 -422 67 -946 116 -1345 13
-109 23 -200 22 -201 -1 -2 -83 58 -182 133 -347 260 -947 676 -1202 833 -40
25 -73 47 -73 50 0 18 511 343 755 480 100 56 548 281 551 277 1 -1 7 -103 13
-227z m16651 -59 c580 -435 1347 -1139 1832 -1681 659 -736 1166 -1577 1522
-2524 14 -38 20 -64 14 -58 -203 162 -549 420 -763 569 -450 314 -1105 702
-1642 976 l-121 61 -12 61 c-139 719 -436 1544 -789 2195 -85 156 -261 452
-332 557 -27 40 -49 75 -49 78 0 9 197 -127 340 -234z m-11312 -115 c115 -123
268 -341 357 -509 42 -78 125 -270 125 -288 0 -4 -26 -11 -57 -14 -32 -4 -236
-31 -453 -61 -679 -94 -1525 -249 -2129 -390 -128 -30 -235 -53 -237 -51 -13
13 724 487 1143 735 401 238 1142 641 1179 642 7 0 39 -29 72 -64z m-8838
-331 c126 -25 318 -85 475 -147 55 -22 103 -42 107 -44 4 -3 -57 -76 -136
-162 -420 -457 -783 -963 -1025 -1429 l-43 -82 -96 -21 c-480 -107 -1048 -281
-1477 -453 -115 -46 -211 -83 -213 -82 -1 1 37 61 86 132 519 755 1180 1504
1932 2191 l145 132 65 -6 c36 -3 117 -16 180 -29z m1597 -731 c294 -180 644
-413 1007 -673 l219 -156 -491 -6 c-512 -7 -625 -10 -1012 -35 -227 -14 -710
-59 -759 -70 -21 -4 -19 1 25 63 109 156 262 348 418 528 63 72 425 445 433
445 2 0 74 -43 160 -96z m11603 -499 c595 -28 1275 -86 1766 -152 l201 -26 7
-76 c50 -583 12 -1196 -110 -1811 -76 -379 -193 -794 -329 -1170 -72 -197 -93
-250 -100 -250 -3 0 -36 15 -73 34 -171 86 -812 384 -1142 531 -1038 462
-2082 864 -3203 1235 -75 24 -97 36 -93 47 25 63 104 334 131 448 80 331 114
586 122 908 4 163 9 237 17 237 6 0 61 4 121 10 175 15 695 41 995 50 388 11
1305 4 1690 -15z m-3720 -247 c0 -198 -34 -450 -96 -708 -40 -170 -123 -430
-136 -430 -5 0 -71 18 -146 39 -792 229 -1778 462 -2592 612 -69 12 -128 25
-132 29 -11 8 676 167 1079 250 188 38 512 99 720 134 425 73 1163 180 1271
185 l32 1 0 -112z m7000 -158 c1297 -267 2457 -636 3595 -1143 93 -41 100 -47
107 -78 9 -47 36 -333 48 -514 13 -198 13 -767 0 -975 -53 -850 -217 -1685
-497 -2535 -68 -208 -196 -560 -255 -707 l-23 -56 -40 30 c-123 93 -728 520
-955 674 -288 195 -876 575 -1157 748 -465 286 -1255 739 -1686 967 -84 45
-156 85 -161 89 -5 5 7 49 29 102 330 825 535 1709 595 2568 12 175 15 768 5
855 l-8 57 29 -6 c16 -3 184 -37 374 -76z m-14370 -837 c-67 -27 -745 -360
-980 -482 -358 -187 -858 -467 -1155 -649 -121 -74 -225 -137 -232 -139 -14
-5 -14 -6 18 202 23 158 63 333 115 510 42 142 112 339 128 359 21 25 612 108
1076 150 368 33 1077 67 1030 49z m3845 -308 c637 -105 1469 -284 2170 -465
197 -51 700 -186 723 -195 16 -6 11 -15 -126 -224 -198 -302 -459 -625 -722
-895 l-166 -169 -314 305 c-404 390 -1117 1053 -1518 1409 -230 205 -305 277
-285 274 15 -3 123 -21 238 -40z m-7016 -270 c-38 -155 -77 -381 -101 -590 -7
-65 -13 -233 -13 -411 l0 -302 -70 -48 c-217 -153 -700 -523 -960 -738 -618
-510 -1034 -904 -1687 -1601 l-48 -50 0 75 c0 94 24 364 51 580 78 622 274
1338 546 1992 l87 210 58 44 c31 25 119 84 195 133 522 335 1115 603 1798 811
88 27 165 49 171 50 7 0 -3 -58 -27 -155z m6386 -571 c505 -447 1799 -1655
1813 -1693 3 -8 -179 -139 -359 -259 -248 -165 -627 -380 -899 -510 -157 -75
-292 -134 -296 -130 -1 2 -46 174 -98 383 -139 557 -353 1500 -467 2060 -55
270 -102 497 -105 505 -3 8 7 3 23 -11 15 -14 190 -169 388 -345z m16072 165
c907 -530 1659 -1099 2320 -1754 l212 -210 20 -165 c119 -958 84 -1976 -104
-3000 -120 -653 -307 -1342 -536 -1973 -73 -199 -157 -418 -164 -425 -1 -1
-96 102 -210 229 -267 297 -862 899 -1215 1229 -445 415 -912 821 -1367 1188
-84 67 -153 126 -153 129 0 4 41 108 91 231 413 1021 672 2016 788 3022 49
425 56 560 56 1116 l0 532 30 -16 c17 -8 121 -68 232 -133z m-19248 -26 c-190
-200 -284 -303 -447 -487 -102 -116 -210 -237 -239 -269 -191 -209 -867 -1045
-1093 -1350 -35 -48 -67 -87 -71 -87 -23 0 -207 268 -283 410 -67 128 -137
292 -171 404 -14 45 -25 85 -25 89 0 13 489 320 825 520 158 94 622 351 815
452 217 114 719 365 729 365 3 0 -15 -21 -40 -47z m2015 -603 c98 -481 309
-1402 452 -1974 63 -252 113 -460 111 -462 -7 -7 -319 -85 -455 -114 -331 -70
-697 -117 -981 -127 l-184 -6 7 37 c15 81 193 731 293 1071 174 594 394 1258
586 1768 65 173 83 213 89 195 4 -13 41 -187 82 -388z m5720 329 c235 -74 813
-274 1164 -403 901 -332 1778 -700 2666 -1118 310 -146 535 -255 545 -264 2
-2 -42 -88 -99 -191 -569 -1041 -1395 -2093 -2328 -2966 -57 -53 -108 -97
-113 -97 -4 0 -383 411 -842 913 -880 963 -1383 1495 -2015 2129 l-385 387
149 154 c416 428 784 909 1044 1365 41 72 77 131 79 132 2 0 63 -19 135 -41z
m-6859 -156 c-12 -38 -53 -153 -89 -258 -104 -297 -265 -799 -371 -1155 -103
-348 -307 -1098 -345 -1268 l-24 -104 -35 7 c-207 36 -505 121 -711 202 -134
53 -450 210 -450 224 0 27 499 666 831 1064 295 353 575 669 927 1047 158 169
288 307 289 307 1 1 -9 -29 -22 -66z m-3838 -1712 c133 -267 335 -558 526
-757 l49 -52 -115 -168 c-603 -886 -1225 -1962 -1706 -2954 -115 -238 -387
-832 -457 -998 l-14 -34 -64 68 c-601 650 -1023 1451 -1216 2308 l-29 129 32
41 c78 102 300 372 392 476 668 766 1384 1433 2249 2098 l210 161 38 -92 c21
-51 68 -152 105 -226z m-3973 -421 c-49 -400 -68 -820 -53 -1185 8 -209 28
-462 45 -575 5 -32 -4 -48 -102 -185 -286 -402 -598 -907 -821 -1330 -40 -77
-71 -129 -69 -115 3 14 10 66 16 115 81 653 325 1597 640 2480 104 291 348
912 355 902 1 -1 -4 -49 -11 -107z m13716 -1070 c358 -373 1623 -1743 2082
-2256 19 -21 19 -21 -94 -111 -761 -606 -1771 -1238 -2648 -1661 -503 -242
-1097 -494 -1105 -469 -2 7 -166 523 -364 1147 -371 1172 -614 1987 -851 2860
l-137 504 186 81 c577 252 1174 598 1656 960 l140 104 325 -327 c179 -180 544
-554 810 -832z m6289 1081 c902 -482 1906 -1090 2751 -1664 425 -289 1099
-773 1100 -790 0 -16 -160 -324 -293 -562 -705 -1264 -1628 -2469 -2737 -3573
-219 -219 -613 -592 -624 -592 -3 0 -342 420 -753 933 -634 791 -868 1073
-1546 1866 l-799 934 182 176 c101 96 192 183 204 192 34 27 480 499 623 659
665 748 1245 1575 1694 2417 24 46 45 83 47 83 2 0 70 -36 151 -79z m9990
-1081 c154 -267 212 -378 311 -590 141 -302 239 -545 340 -850 96 -289 99
-299 124 -490 59 -445 78 -737 79 -1210 0 -474 -20 -808 -78 -1270 -95 -758
-283 -1564 -544 -2330 -94 -276 -113 -330 -121 -330 -3 0 -43 77 -90 171 -327
660 -748 1331 -1268 2023 -153 204 -164 222 -154 245 5 14 60 148 122 296 453
1098 764 2254 899 3345 54 435 76 730 88 1190 l6 262 84 -129 c46 -70 137
-220 202 -333z m-24645 55 c364 -214 861 -399 1324 -494 51 -10 95 -20 97 -22
2 -2 -37 -204 -85 -449 -250 -1251 -430 -2535 -534 -3813 -19 -232 -36 -452
-38 -489 -2 -37 -7 -70 -11 -74 -8 -8 -180 17 -387 58 -837 161 -1606 442
-2273 830 -103 60 -435 274 -460 297 -10 9 76 218 251 611 515 1159 1141 2289
1880 3398 74 111 136 202 139 202 2 0 46 -25 97 -55z m4400 -352 c3 -10 53
-196 111 -413 211 -782 521 -1824 884 -2965 348 -1095 358 -1130 337 -1138
-65 -25 -578 -168 -801 -222 -712 -174 -1385 -281 -2085 -330 -262 -19 -888
-31 -1064 -20 l-128 7 6 102 c101 1505 336 3175 658 4677 l10 47 307 5 c523 9
1026 79 1561 217 102 26 188 48 192 49 4 0 9 -7 12 -16z m-9429 -1753 c141
-394 383 -867 630 -1235 217 -323 421 -571 722 -876 l223 -226 -69 -187 c-99
-264 -276 -812 -393 -1211 -215 -739 -412 -1617 -512 -2285 -14 -96 -32 -212
-39 -257 l-12 -82 -112 122 c-725 792 -1248 1729 -1548 2772 -82 285 -159 630
-159 715 -1 135 204 796 392 1265 116 290 371 822 516 1080 137 242 310 525
316 518 4 -5 24 -55 45 -113z m24585 -151 c500 -418 803 -691 1324 -1194 370
-357 929 -955 1224 -1308 l73 -87 -144 -283 c-649 -1271 -1499 -2497 -2550
-3681 -252 -284 -569 -617 -883 -927 -255 -253 -655 -631 -672 -636 -4 -1 -93
127 -199 285 -461 691 -1417 2024 -2034 2835 l-287 378 181 167 c642 588 1342
1339 1901 2037 665 831 1185 1623 1700 2588 31 58 51 85 59 80 7 -4 145 -118
307 -254z m-7694 -1681 c671 -785 901 -1062 1538 -1858 412 -514 753 -940 757
-946 6 -7 -73 -76 -224 -196 -1446 -1152 -3140 -2144 -4842 -2836 -394 -160
-499 -200 -507 -193 -4 3 -196 492 -428 1086 -376 963 -468 1209 -841 2264
-230 651 -419 1187 -419 1190 0 4 105 49 233 100 648 262 1379 620 1998 981
624 364 1259 796 1819 1239 63 50 118 91 121 91 3 0 361 -415 795 -922z
m-14459 -1151 c831 -538 1891 -932 2998 -1116 99 -17 205 -33 236 -37 31 -4
61 -9 66 -13 6 -4 6 -79 1 -201 -14 -290 -14 -1705 0 -2075 28 -755 65 -1321
132 -2015 23 -228 43 -421 45 -428 3 -9 -4 -11 -28 -7 -17 2 -117 19 -222 35
-1464 236 -2778 728 -3860 1445 -129 85 -385 267 -423 301 -2 1 4 74 13 161
104 987 296 1944 596 2973 99 339 328 1040 340 1040 5 0 52 -28 106 -63z
m25509 -707 c181 -255 197 -278 304 -445 259 -402 443 -721 640 -1110 120
-239 311 -670 380 -860 l33 -90 -144 -285 c-828 -1638 -1967 -3186 -3400
-4619 -277 -277 -682 -661 -696 -661 -5 0 -48 74 -96 165 -339 640 -908 1616
-1311 2249 l-197 309 63 56 c1539 1382 2885 3006 3865 4666 126 213 337 592
394 707 24 48 46 84 50 80 3 -4 55 -77 115 -162z m-16459 -1088 c371 -1053
454 -1275 844 -2275 237 -609 429 -1110 427 -1113 -7 -7 -321 -103 -568 -174
-1164 -333 -2374 -548 -3522 -625 -445 -29 -971 -39 -1373 -26 -203 6 -391 14
-416 18 l-46 5 -22 182 c-131 1110 -201 2488 -187 3671 3 308 9 632 13 720 l6
160 491 0 c815 1 1449 58 2236 201 515 94 1236 271 1620 397 41 14 77 25 80
26 3 0 190 -525 417 -1167z m-12718 -692 c420 -729 929 -1353 1590 -1950 l83
-75 -12 -271 c-16 -354 -8 -1263 14 -1574 24 -338 65 -718 107 -998 11 -74 19
-138 17 -143 -2 -6 -66 69 -143 166 -636 801 -1095 1680 -1395 2677 -227 751
-435 1778 -495 2434 -8 94 -15 178 -15 185 0 8 38 -58 83 -146 46 -88 120
-225 166 -305z m31896 14 c-20 -137 -50 -328 -66 -424 -53 -311 -166 -868
-178 -882 -4 -5 -20 45 -35 110 -16 64 -48 183 -72 263 l-43 146 65 149 c80
181 243 589 310 776 27 76 50 132 52 125 1 -7 -13 -125 -33 -263z m-10623
-279 c391 -516 994 -1343 1382 -1895 385 -548 847 -1231 840 -1241 -11 -18
-482 -393 -704 -561 -353 -266 -512 -382 -805 -585 -1321 -914 -2723 -1683
-4165 -2286 -268 -112 -692 -281 -798 -318 l-54 -18 -180 367 c-268 546 -674
1425 -993 2147 -280 636 -611 1413 -604 1419 2 2 123 51 269 109 725 287 1448
620 2120 977 1105 586 2198 1302 3174 2078 183 145 232 180 242 170 6 -7 131
-170 276 -363z m9622 -1973 c70 -643 11 -1278 -170 -1822 -120 -360 -406 -959
-742 -1555 -671 -1190 -1485 -2285 -2439 -3283 -97 -101 -178 -180 -181 -177
-3 3 -18 65 -33 138 -90 441 -313 1086 -578 1677 l-52 115 73 65 c540 482
1222 1167 1705 1710 583 656 1192 1440 1630 2095 235 353 569 894 706 1143 61
111 57 115 81 -106z m-28264 -502 c30 -20 129 -82 220 -137 1188 -717 2599
-1200 4150 -1419 146 -20 266 -37 266 -38 1 -1 12 -66 23 -146 40 -266 151
-885 216 -1202 168 -820 387 -1659 618 -2369 l73 -225 -120 18 c-1898 291
-3595 967 -4926 1964 l-170 127 -19 66 c-104 355 -214 864 -276 1275 -81 542
-119 974 -135 1571 -11 384 -6 570 14 558 6 -4 36 -23 66 -43z m11874 -1202
c385 -918 1080 -2457 1459 -3228 97 -197 141 -297 134 -301 -23 -13 -577 -180
-787 -238 -1498 -414 -2880 -636 -4355 -702 -460 -20 -1699 2 -1754 31 -39 21
-361 1022 -510 1585 -121 461 -217 870 -310 1320 -62 306 -195 1054 -188 1061
2 2 160 -1 352 -7 532 -16 1226 7 1835 62 1203 108 2585 390 3770 767 85 28
162 50 170 51 11 1 63 -113 184 -401z m9668 -493 c404 -636 1053 -1764 1313
-2278 l100 -198 -35 -30 c-95 -83 -453 -367 -680 -541 -1258 -963 -2658 -1813
-4130 -2508 -447 -211 -1064 -474 -1513 -645 -248 -95 -258 -98 -271 -79 -49
66 -306 480 -524 844 -261 434 -711 1234 -887 1575 -54 105 -113 218 -132 252
-32 58 -33 63 -16 69 10 4 146 57 303 119 1169 461 2276 1002 3380 1655 930
550 1935 1245 2730 1889 102 82 188 146 191 143 4 -4 81 -124 171 -267z
m-20392 -3337 c1137 -628 2434 -1076 3835 -1322 237 -41 630 -100 770 -116
182 -19 147 16 270 -273 352 -823 724 -1523 1151 -2161 40 -61 72 -112 69
-114 -11 -12 -578 105 -915 188 -1467 363 -2775 972 -3838 1787 -165 127 -188
148 -356 333 -367 405 -683 844 -983 1370 -95 165 -223 410 -223 425 0 4 19
-4 43 -18 23 -14 103 -58 177 -99z m22222 -25 c350 -852 499 -1385 502 -1793
1 -232 -19 -304 -116 -396 -153 -147 -686 -567 -1098 -866 -1134 -821 -2490
-1541 -3835 -2037 -266 -99 -292 -105 -361 -91 -347 72 -907 581 -1504 1367
l-89 117 212 82 c1246 482 2668 1196 3847 1932 790 493 1590 1058 2240 1581
96 77 178 140 181 141 3 0 13 -17 21 -37z m-9287 -858 c104 -198 225 -425 270
-505 45 -80 153 -273 240 -430 138 -250 601 -1033 722 -1222 23 -37 65 -103
92 -146 l49 -78 -217 -67 c-1997 -613 -4077 -914 -5928 -859 -382 12 -606 23
-748 37 l-60 6 -76 92 c-213 257 -515 688 -741 1057 -203 331 -521 936 -689
1311 l-66 146 557 -5 c555 -5 838 2 1335 33 254 16 243 15 610 51 1335 128
2755 418 4100 839 165 51 311 98 325 103 14 6 28 7 31 3 4 -3 91 -168 194
-366z m1908 -3168 c3 -7 79 -112 170 -234 378 -504 750 -926 1059 -1198 l116
-103 -61 -16 c-1747 -451 -3578 -607 -5387 -461 -323 26 -550 62 -785 125
-511 136 -1026 392 -1499 743 l-126 94 409 7 c784 13 1354 51 2091 141 316 39
698 97 1050 160 706 127 1355 277 2053 476 255 72 752 226 852 263 51 19 52
19 58 3z m-8843 -837 c216 -36 635 -95 791 -111 l116 -12 198 -198 198 -199
-59 20 c-32 10 -158 51 -279 91 -271 88 -637 222 -935 341 -232 93 -275 112
-230 103 14 -3 104 -18 200 -35z"/>
</g>
</svg>
